<svg width="180" height="180" viewBox="0 0 180 180" fill="none" xmlns="http://www.w3.org/2000/svg">
<g clip-path="url(#clip0_2307_489)">
<path d="M33.9482 35.9119C41.7824 35.9119 48.3109 29.3834 48.3109 21.3627C48.3109 13.5285 41.7824 7 33.9482 7C25.9275 7 19.399 13.5285 19.399 21.3627C19.399 29.3834 25.9275 35.9119 33.9482 35.9119ZM146.238 35.9119C154.073 35.9119 160.601 29.3834 160.601 21.3627C160.601 13.5285 154.073 7 146.238 7C138.218 7 131.689 13.5285 131.689 21.3627C131.689 29.3834 138.218 35.9119 146.238 35.9119ZM90.0933 173.756C139.71 173.756 180 133.839 180 84.2228C180 80.3057 177.389 77.5078 173.658 77.5078C169.741 77.5078 167.13 80.3057 167.13 84.2228C166.943 126.565 132.995 161.073 90.0933 161.073C47.1917 161.073 12.8705 126.565 12.8705 84.2228C12.8705 80.3057 10.2591 77.5078 6.34197 77.5078C2.6114 77.5078 0 80.3057 0 84.2228C0 133.839 40.2902 173.756 90.0933 173.756Z" fill="url(#paint0_linear_2307_489)"/>
</g>
<defs>
<linearGradient id="paint0_linear_2307_489" x1="0" y1="7" x2="191.783" y2="21.8788" gradientUnits="userSpaceOnUse">
<stop stop-color="#BD8DF3"/>
<stop offset="1" stop-color="#7F85FA"/>
</linearGradient>
<clipPath id="clip0_2307_489">
<rect width="180" height="180" fill="white"/>
</clipPath>
</defs>
</svg>
