<svg height="16" viewBox="0 0 76 16" width="76" xmlns="http://www.w3.org/2000/svg"><path d="m3.34654 5.89881c0 1.59879 1.36573 2.89449 3.05087 2.89449 1.68513 0 3.05086-1.2957 3.05086-2.89449 0-1.5988-1.36573-2.89449-3.05086-2.89449-1.68514 0-3.05087 1.29569-3.05087 2.89449zm-.05495-4.85585c.9591-.656606 2.12046-1.04302104 3.37419-1.04302104 3.28574 0 5.94932 2.64121104 5.94932 5.89887104s-2.66358 5.89889-5.94932 5.89889c-1.25373 0-2.41509-.3864-3.37419-1.043v4.9757h-3.29146793v-15.399291h3.29146793zm60.64981 4.85587c0 1.59879 1.3658 2.89449 3.0509 2.89449s3.0509-1.2957 3.0509-2.89449-1.3658-2.89449-3.0509-2.89449-3.0509 1.2957-3.0509 2.89449zm9.4533 1.65675c0 .88423.221 1.23744.8175 1.23744.3683 0 .5522-.04408.5522-.04408v2.73966c-.3535.1102-.8396.1769-1.4805.1769-.7287 0-1.3476-.1326-1.8116-.3979-.3988-.2602-.685-.563-.8661-.9054-1.0424.8921-2.3973 1.4355-3.8823 1.4355-3.2854 0-5.9493-2.64121-5.9493-5.89887s2.6639-5.89886756 5.9493-5.89886756c1.2559 0 2.4187.38792456 3.3787 1.04633756v-.715168h3.2921zm-32.6438-3.04196.9766.14793c2.3861.36347 3.7153 1.43124 3.7153 3.29479 0 2.27226-1.7391 3.86176-4.9319 3.86176-1.4998 0-3.5891-.4082-5.0207-1.4189l1.2317-2.31154c1.1061.66596 1.9828 1.04845 3.6414 1.04845 1.3748 0 2.0803-.29373 2.0803-.94128 0-.53404-.5573-.82928-1.8294-1.01132l-.8975-.12468c-2.5453-.3523-3.8065-1.46596-3.8065-3.34038 0-2.26083 1.6329-3.71833732 4.5301-3.71833732 1.7609 0 3.2763.36256632 4.742 1.07863732l-1.0231 2.38974c-.8755-.4317-2.2729-.88604-3.5109-.89781-1.1249 0-1.693.39758-1.693.99985 0 .63637.7955.79577 1.7956.94309zm12.5987 4.2797c-1.6851 0-3.0509-1.2957-3.0509-2.89449s1.3658-2.89449 3.0509-2.89449 3.0509 1.2957 3.0509 2.89449-1.3658 2.89449-3.0509 2.89449zm.2684-8.79335756c-1.2538 0-2.4151.38641556-3.3742 1.04301756v-.711848h-3.2915v15.399268h3.2915v-4.9757c.9591.6566 2.1204 1.043 3.3742 1.043 3.2854 0 5.9492-2.64121 5.9492-5.89887s-2.6638-5.89886756-5.9492-5.89886756zm-32.9077.33123356s-2.2575 0-3.2945 1.522414v-1.522414h-3.2915v11.135104h3.2915v-5.21661c.3094-2.61706 3.2945-2.65751 3.2945-2.65751.2738-1.13721.9902-3.18189.9902-3.18189-.6352-.09449-.9902-.079094-.9902-.079094zm7.3857 8.483864c.8175 0 1.5028-.2868 2.0549-.83955.5522-.57419.8396-1.25887.8396-2.07638s-.2874-1.50249-.8396-2.05494c-.5521-.57419-1.2374-.86189-2.0549-.86189s-1.5019.2877-2.0547.86189c-.5521.55245-.8392 1.23743-.8392 2.05494s.2871 1.52423.8392 2.07638c.5528.55275 1.2372.83955 2.0547.83955zm-4.3964-7.09193c1.2151-1.148979 2.6735-1.72316756 4.3964-1.72316756 1.7017 0 3.1598.57418856 4.3752 1.72316756 1.2148 1.12695 1.8116 2.51894 1.8116 4.176 0 1.65645-.5968 3.04846-1.8116 4.19747-1.2154 1.1269-2.6735 1.7011-4.3752 1.7011-1.7229 0-3.1813-.5742-4.3964-1.7011-1.1931-1.14901-1.7896-2.54102-1.7896-4.19747 0-1.65706.5965-3.04905 1.7896-4.176z"/></svg>